# Blender v2.79 (sub 0) OBJ File: ''
# www.blender.org
mtllib wheel01.mtl
o WHEEL_00
v 0.644087 -0.319586 1.564659
v 0.644087 0.405414 2.084659
v 0.644087 -0.422936 2.086309
v 0.644087 0.877064 1.324660
v 0.644086 1.173764 1.768010
v 0.644087 1.317064 0.884660
v 0.644086 1.760414 1.181310
v 0.644086 2.077064 0.413010
v 0.644086 1.555414 0.309661
v 0.644086 2.077065 -0.415340
v 0.644087 1.317065 -0.886990
v 0.644087 1.760415 -1.183690
v 0.644087 1.173765 -1.770340
v 0.644087 0.877065 -1.326990
v 0.644087 0.405416 -2.086991
v 0.644087 0.302065 -1.565341
v 0.644087 -0.422934 -2.086991
v 0.644087 -0.894585 -1.326991
v 0.644087 -1.191235 -1.770341
v 0.644087 -1.777935 -1.183692
v 0.644087 -1.574585 -0.311992
v 0.644087 -2.096235 -0.415342
v 0.644087 -2.096236 0.413008
v 0.644087 -1.574586 0.309660
v 0.644087 -1.777936 1.181309
v 0.644087 -1.334586 0.884659
v 0.644087 -1.191236 1.768008
v 0.644087 -0.319586 1.564659
v 0.644087 -0.422936 2.086309
v -0.754263 -0.422936 2.086309
v 0.644087 -1.191236 1.768008
v 0.644087 -0.422936 2.086309
v -0.754263 -1.191236 1.768008
v 0.644087 -1.777936 1.181309
v -0.754263 -1.777936 1.181309
v 0.644087 -2.096236 0.413008
v -0.754263 -2.096236 0.413008
v 0.644087 -2.096235 -0.415342
v -0.754263 -2.096235 -0.415342
v 0.644087 -1.777935 -1.183692
v -0.754263 -1.777935 -1.183692
v 0.644087 -1.191235 -1.770341
v -0.754263 -1.191235 -1.770341
v 0.644087 -0.422934 -2.086991
v -0.754263 -0.422934 -2.086991
v 0.644087 0.405416 -2.086991
v -0.754263 0.405416 -2.086991
v 0.644087 1.173765 -1.770340
v -0.754264 1.173765 -1.770340
v 0.644087 1.760415 -1.183690
v -0.754264 1.760415 -1.183690
v 0.644086 2.077065 -0.415340
v -0.754264 2.077065 -0.415340
v 0.644086 2.077064 0.413010
v -0.754264 2.077064 0.413010
v 0.644086 1.760414 1.181310
v -0.754264 1.760414 1.181310
v 0.644086 1.173764 1.768010
v -0.754264 1.173764 1.768010
v 0.644087 0.405414 2.084659
v -0.754264 0.405414 2.084659
v 0.644087 -0.422936 2.086309
v -0.754264 0.405414 2.084659
v -0.754263 -1.191236 1.768008
v -0.754263 -0.422936 2.086309
v -0.754264 1.760414 1.181310
v -0.754263 -1.777936 1.181309
v -0.754264 2.077064 0.413010
v -0.754263 -2.096236 0.413008
v -0.754263 -2.096235 -0.415342
v -0.754264 2.077065 -0.415340
v -0.754263 -1.777935 -1.183692
v -0.754264 1.760415 -1.183690
v -0.754263 -1.191235 -1.770341
v -0.754263 0.405416 -2.086991
v -0.754263 -0.422934 -2.086991
v 0.644087 0.302064 1.563009
v 0.644087 1.555415 -0.311990
v 0.644087 -0.319585 -1.565341
v 0.644087 -1.334585 -0.886992
v 0.644087 -0.894586 1.324659
v -0.754263 -0.422936 2.086309
v -0.754264 1.173764 1.768010
v -0.754264 1.173765 -1.770340
vt 0.027495 0.919935
vt 0.006018 0.889990
vt 0.005949 0.924204
vt 0.037408 0.870510
vt 0.019097 0.858256
vt 0.055581 0.852338
vt 0.043328 0.834025
vt 0.075062 0.820946
vt 0.079330 0.842493
vt 0.109275 0.820946
vt 0.128756 0.852338
vt 0.141010 0.834025
vt 0.165241 0.858256
vt 0.146928 0.870510
vt 0.178319 0.889990
vt 0.156773 0.894260
vt 0.178319 0.924204
vt 0.146928 0.943684
vt 0.165241 0.955937
vt 0.141010 0.980169
vt 0.105006 0.971771
vt 0.109275 0.993317
vt 0.075062 0.993317
vt 0.079330 0.971771
vt 0.043328 0.980169
vt 0.055581 0.961858
vt 0.019097 0.955937
vt 0.027495 0.919935
vt 0.005949 0.924204
vt 0.005949 0.924204
vt 0.019097 0.955937
vt 0.005949 0.924204
vt 0.019097 0.955937
vt 0.043328 0.980169
vt 0.043328 0.980169
vt 0.075062 0.993317
vt 0.075062 0.993317
vt 0.109275 0.993317
vt 0.109275 0.993317
vt 0.141010 0.980169
vt 0.141010 0.980169
vt 0.165241 0.955937
vt 0.165241 0.955937
vt 0.178319 0.924204
vt 0.178319 0.924204
vt 0.178319 0.889990
vt 0.178319 0.889990
vt 0.165241 0.858256
vt 0.165241 0.858256
vt 0.141010 0.834025
vt 0.141010 0.834025
vt 0.109275 0.820946
vt 0.109275 0.820946
vt 0.075062 0.820946
vt 0.075062 0.820946
vt 0.043328 0.834025
vt 0.043328 0.834025
vt 0.019097 0.858256
vt 0.019097 0.858256
vt 0.006018 0.889990
vt 0.006018 0.889990
vt 0.005949 0.924204
vt 0.006018 0.889990
vt 0.019097 0.955937
vt 0.005949 0.924204
vt 0.043328 0.834025
vt 0.043328 0.980169
vt 0.075062 0.820946
vt 0.075062 0.993317
vt 0.109275 0.993317
vt 0.109275 0.820946
vt 0.141010 0.980169
vt 0.141010 0.834025
vt 0.165241 0.955937
vt 0.178319 0.889990
vt 0.178319 0.924204
vt 0.027563 0.894260
vt 0.105006 0.842493
vt 0.156773 0.919935
vt 0.128756 0.961858
vt 0.037408 0.943684
vt 0.005949 0.924204
vt 0.019097 0.858256
vt 0.165241 0.858256
vn 1.0000 0.0000 0.0000
vn 0.0000 -0.3827 0.9239
vn 0.0000 -0.7071 0.7071
vn 0.0000 -0.9239 0.3827
vn 0.0000 -1.0000 -0.0000
vn 0.0000 -0.9239 -0.3827
vn 0.0000 -0.7071 -0.7071
vn 0.0000 -0.3810 -0.9246
vn 0.0000 0.0000 -1.0000
vn 0.0000 0.3810 -0.9246
vn 0.0000 0.7071 -0.7071
vn 0.0000 0.9246 -0.3810
vn 0.0000 1.0000 0.0000
vn 0.0000 0.9246 0.3811
vn 0.0000 0.9246 0.3810
vn 0.0000 0.7071 0.7071
vn 0.0000 0.3810 0.9246
vn 0.0000 0.0020 1.0000
vn -1.0000 -0.0000 -0.0000
usemtl Material.002
s 1
f 1/1/1 2/2/1 3/3/1
f 2/2/1 4/4/1 5/5/1
f 5/5/1 6/6/1 7/7/1
f 6/6/1 8/8/1 7/7/1
f 9/9/1 10/10/1 8/8/1
f 10/10/1 11/11/1 12/12/1
f 11/11/1 13/13/1 12/12/1
f 14/14/1 15/15/1 13/13/1
f 16/16/1 17/17/1 15/15/1
f 17/17/1 18/18/1 19/19/1
f 18/18/1 20/20/1 19/19/1
f 20/20/1 21/21/1 22/22/1
f 21/21/1 23/23/1 22/22/1
f 24/24/1 25/25/1 23/23/1
f 26/26/1 27/27/1 25/25/1
f 27/27/1 28/28/1 29/29/1
f 30/30/2 31/31/2 32/32/2
f 33/33/3 34/34/3 31/31/3
f 35/35/4 36/36/4 34/34/4
f 37/37/5 38/38/5 36/36/5
f 39/39/6 40/40/6 38/38/6
f 41/41/7 42/42/7 40/40/7
f 43/43/8 44/44/8 42/42/8
f 45/45/9 46/46/9 44/44/9
f 47/47/10 48/48/10 46/46/10
f 49/49/11 50/50/11 48/48/11
f 51/51/12 52/52/12 50/50/12
f 53/53/13 54/54/13 52/52/13
f 55/55/14 56/56/15 54/54/15
f 57/57/16 58/58/16 56/56/16
f 59/59/17 60/60/17 58/58/17
f 61/61/18 62/62/18 60/60/18
f 63/63/19 64/64/19 65/65/19
f 64/64/19 66/66/19 67/67/19
f 67/67/19 68/68/19 69/69/19
f 68/68/19 70/70/19 69/69/19
f 71/71/19 72/72/19 70/70/19
f 73/73/19 74/74/19 72/72/19
f 74/74/19 75/75/19 76/76/19
f 1/1/1 77/77/1 2/2/1
f 2/2/1 77/77/1 4/4/1
f 5/5/1 4/4/1 6/6/1
f 6/6/1 9/9/1 8/8/1
f 9/9/1 78/78/1 10/10/1
f 10/10/1 78/78/1 11/11/1
f 11/11/1 14/14/1 13/13/1
f 14/14/1 16/16/1 15/15/1
f 16/16/1 79/79/1 17/17/1
f 17/17/1 79/79/1 18/18/1
f 18/18/1 80/80/1 20/20/1
f 20/20/1 80/80/1 21/21/1
f 21/21/1 24/24/1 23/23/1
f 24/24/1 26/26/1 25/25/1
f 26/26/1 81/81/1 27/27/1
f 27/27/1 81/81/1 28/28/1
f 30/30/2 33/33/2 31/31/2
f 33/33/3 35/35/3 34/34/3
f 35/35/4 37/37/4 36/36/4
f 37/37/5 39/39/5 38/38/5
f 39/39/6 41/41/6 40/40/6
f 41/41/7 43/43/7 42/42/7
f 43/43/8 45/45/8 44/44/8
f 45/45/9 47/47/9 46/46/9
f 47/47/10 49/49/10 48/48/10
f 49/49/11 51/51/11 50/50/11
f 51/51/12 53/53/12 52/52/12
f 53/53/13 55/55/13 54/54/13
f 55/55/14 57/57/14 56/56/15
f 57/57/16 59/59/16 58/58/16
f 59/59/17 61/61/17 60/60/17
f 61/61/18 82/82/18 62/62/18
f 63/63/19 83/83/19 64/64/19
f 64/64/19 83/83/19 66/66/19
f 67/67/19 66/66/19 68/68/19
f 68/68/19 71/71/19 70/70/19
f 71/71/19 73/73/19 72/72/19
f 73/73/19 84/84/19 74/74/19
f 74/74/19 84/84/19 75/75/19
