# Blender v2.79 (sub 0) OBJ File: ''
# www.blender.org
o Cube_Cube.001
v -1.000000 0.009564 1.000000
v -1.000000 6.490436 1.000000
v -1.000000 0.009564 -1.000000
v -1.000000 6.490436 -1.000000
v 1.000000 0.009564 1.000000
v 1.000000 6.490436 1.000000
v 1.000000 0.009564 -1.000000
v 1.000000 6.490436 -1.000000
vt 0.747056 0.990332
vt 0.496130 0.010970
vt 0.747056 0.010969
vt 0.260136 0.979414
vt 0.017816 0.020587
vt 0.260136 0.020586
vt 0.258230 0.977528
vt 0.009169 0.004243
vt 0.258230 0.004243
vt 0.252560 0.027543
vt 0.503225 0.997261
vt 0.252560 0.997261
vt 0.666667 0.333333
vt 1.000000 0.000000
vt 1.000000 0.333333
vt 0.333333 1.000000
vt 0.000000 0.666667
vt 0.333333 0.666667
vt 0.496131 0.990333
vt 0.017816 0.979414
vt 0.009169 0.977528
vt 0.503225 0.027543
vt 0.666667 0.000000
vt 0.000000 1.000000
vn -1.0000 0.0000 0.0000
vn 0.0000 0.0000 -1.0000
vn 1.0000 0.0000 0.0000
vn 0.0000 0.0000 1.0000
vn 0.0000 -1.0000 0.0000
vn 0.0000 1.0000 0.0000
s off
f 2/1/1 3/2/1 1/3/1
f 4/4/2 7/5/2 3/6/2
f 8/7/3 5/8/3 7/9/3
f 6/10/4 1/11/4 5/12/4
f 7/13/5 1/14/5 3/15/5
f 4/16/6 6/17/6 8/18/6
f 2/1/1 4/19/1 3/2/1
f 4/4/2 8/20/2 7/5/2
f 8/7/3 6/21/3 5/8/3
f 6/10/4 2/22/4 1/11/4
f 7/13/5 5/23/5 1/14/5
f 4/16/6 2/24/6 6/17/6
