# Blender v2.79 (sub 0) OBJ File: ''
# www.blender.org
mtllib building2.mtl
o Cube_Cube.001
v -5.000000 0.000000 5.000000
v -5.000000 32.000000 5.000000
v -5.000000 0.000000 -5.000000
v -5.000000 32.000000 -5.000000
v 5.000000 0.000000 5.000000
v 5.000000 32.000000 5.000000
v 5.000000 0.000000 -5.000000
v 5.000000 32.000000 -5.000000
v -4.358873 18.001255 5.091394
v 4.358873 18.001255 5.091394
v -4.358873 30.489592 5.091394
v 4.358873 30.489592 5.091394
v 5.050468 11.582986 4.412354
v 5.050468 11.582986 -4.305393
v 5.050468 23.477791 4.412354
v 5.050468 23.477791 -4.305393
v 4.371858 3.518617 -5.059136
v -4.345889 3.518617 -5.059137
v 4.371858 16.006950 -5.059136
v -4.345889 16.006950 -5.059137
v -5.037484 15.681956 -4.380096
v -5.037484 15.681956 4.337650
v -5.037484 27.576759 -4.380096
v -5.037484 27.576759 4.337650
vt 0.998820 1.000000
vt 0.715820 0.500000
vt 0.998820 0.500000
vt 1.000370 1.000000
vt 0.717370 0.500000
vt 1.000370 0.500000
vt 0.999898 1.000000
vt 0.716899 0.500000
vt 0.999898 0.500000
vt 0.998414 1.000000
vt 0.715414 0.500000
vt 0.998414 0.500000
vt 0.974496 0.099939
vt 0.712506 0.099939
vt 0.970168 0.099939
vt 0.715426 0.781382
vt 0.904691 0.686750
vt 0.904691 0.781382
vt 0.714708 0.500138
vt 0.000076 0.999862
vt 0.000421 0.500038
vt 0.701730 0.000138
vt 0.000652 0.499862
vt 0.000991 0.000038
vt 0.714708 0.500138
vt 0.000076 0.999862
vt 0.000421 0.500038
vt 0.701730 0.000138
vt 0.000652 0.499862
vt 0.000991 0.000038
vt 0.715820 1.000000
vt 0.717370 1.000000
vt 0.716898 1.000000
vt 0.715414 1.000000
vt 0.716834 0.099939
vt 0.715426 0.686750
vt 0.714363 0.999962
vt 0.701391 0.499962
vt 0.714363 0.999962
vt 0.701391 0.499962
vn -1.0000 0.0000 0.0000
vn 0.0000 0.0000 -1.0000
vn 1.0000 0.0000 0.0000
vn 0.0000 0.0000 1.0000
vn 0.0000 -1.0000 0.0000
vn 0.0000 1.0000 0.0000
usemtl None
s off
f 2/1/1 3/2/1 1/3/1
f 4/4/2 7/5/2 3/6/2
f 8/7/3 5/8/3 7/9/3
f 6/10/4 1/11/4 5/12/4
f 7/13/5 1/14/5 3/15/5
f 4/16/6 6/17/6 8/18/6
f 10/19/4 11/20/4 9/21/4
f 14/22/3 15/23/3 13/24/3
f 18/25/2 19/26/2 17/27/2
f 22/28/1 23/29/1 21/30/1
f 2/1/1 4/31/1 3/2/1
f 4/4/2 8/32/2 7/5/2
f 8/7/3 6/33/3 5/8/3
f 6/10/4 2/34/4 1/11/4
f 7/13/5 5/35/5 1/14/5
f 4/16/6 2/36/6 6/17/6
f 10/19/4 12/37/4 11/20/4
f 14/22/3 16/38/3 15/23/3
f 18/25/2 20/39/2 19/26/2
f 22/28/1 24/40/1 23/29/1
